<?xml version="1.0" standalone="no"?><!DOCTYPE svg PUBLIC "-//W3C//DTD SVG 1.1//EN" "http://www.w3.org/Graphics/SVG/1.1/DTD/svg11.dtd"><svg t="1753436622294" class="icon" viewBox="0 0 1024 1024" version="1.1" xmlns="http://www.w3.org/2000/svg" p-id="9027" width="256" height="256" data-spm-anchor-id="a313x.search_index.0.i11.79f53a81E9qvAC" xmlns:xlink="http://www.w3.org/1999/xlink"><path d="M820.283717 737.643367L557.03345 718.970419c-28.284921-2.005994-41.606884-35.9109-22.253938-56.635842L867.967584 305.53857a75.033791 75.033791 0 0 0 20.019945-45.936873l9.011974-127.055646c1.316996-18.571948-12.669965-34.694903-31.241913-36.0119L220.424387 50.759279c-18.571948-1.316996-34.694903 12.669965-36.0119 31.241913l-11.939967 168.332531c-1.316996 18.571948 12.669965 34.694903 31.241913 36.0119l256.895285 18.221949c28.193922 1.999994 41.557884 35.723901 22.385938 56.492843L155.982566 715.323429a75.010791 75.010791 0 0 0-19.727945 45.614873l-9.257974 130.517637c-1.316996 18.571948 12.669965 34.694903 31.241913 36.0119l645.333203 45.773872c18.571948 1.316996 34.694903-12.669965 36.0119-31.241913l11.940967-168.344531c1.317996-18.570948-12.668965-34.694903-31.240913-36.0119z" opacity=".5" p-id="9028" fill="#1296db" data-spm-anchor-id="a313x.search_index.0.i12.79f53a81E9qvAC" class="selected"></path><path d="M856.805615 676.507537l-262.14227 30.508915c-28.165922 3.277991-47.548868-27.564923-32.37791-51.521856l261.181273-412.434852a75.034791 75.034791 0 0 0 11.146969-48.853865L819.886718 67.685232C817.734724 49.191283 800.997771 35.94432 782.504822 38.096314l-642.617211 74.790792c-18.493949 2.151994-31.740912 18.888947-29.587918 37.382896l19.508946 167.624533c2.151994 18.493949 18.888947 31.740912 37.382896 29.587918l255.813288-29.772917c28.075922-3.267991 47.465868 27.389924 32.481909 51.356857l-255.583288 408.798862a75.005791 75.005791 0 0 0-10.91897 48.482865l15.125958 129.968638c2.151994 18.493949 18.888947 31.740912 37.382896 29.587918l642.617211-74.790792c18.493949-2.151994 31.740912-18.888947 29.587918-37.382896l-19.509946-167.636533c-2.152994-18.491949-18.889947-31.738912-37.382896-29.586918z" opacity=".3" p-id="9029" fill="#1296db"></path><path d="M768.208862 795.392206l-254.016293-71.5898c-27.292924-7.691979-33.473907-43.591879-10.324971-59.968834l398.53189-281.940215a75.032791 75.032791 0 0 0 28.90692-40.931886l34.551904-122.598659c5.050986-17.91995-5.382985-36.541898-23.302935-41.591884L319.85811 1.275416c-17.91995-5.050986-36.541898 5.382985-41.591884 23.302936L232.489353 187.0069c-5.050986 17.91995 5.382985 36.541898 23.302935 41.591884l247.88431 69.861805c27.205924 7.666979 33.463907 43.397879 10.482971 59.855834l-391.970909 280.709218A75.007791 75.007791 0 0 0 93.633739 679.700528L58.139838 805.640178c-5.050986 17.91995 5.382985 36.541898 23.302935 41.591884l622.697267 175.495512c17.91995 5.049986 36.541898-5.382985 41.591884-23.302936l45.780873-162.439547c5.048986-17.92095-5.383985-36.542898-23.303935-41.592885z" p-id="9030" fill="#1296db" data-spm-anchor-id="a313x.search_index.0.i9.79f53a81E9qvAC" class="selected"></path></svg>